<svg id="visual" viewBox="0 0 900 450" width="900" height="450" xmlns="http://www.w3.org/2000/svg" xmlns:xlink="http://www.w3.org/1999/xlink" version="1.1"><rect x="0" y="0" width="900" height="450" fill="#fff"></rect><defs><linearGradient id="grad1_0" x1="50%" y1="0%" x2="100%" y2="100%"><stop offset="10%" stop-color="#ffffff" stop-opacity="1"></stop><stop offset="90%" stop-color="#ffffff" stop-opacity="1"></stop></linearGradient></defs><defs><linearGradient id="grad2_0" x1="0%" y1="0%" x2="50%" y2="100%"><stop offset="10%" stop-color="#ffffff" stop-opacity="1"></stop><stop offset="90%" stop-color="#ffffff" stop-opacity="1"></stop></linearGradient></defs><g transform="translate(900, 0)"><path d="M0 157.5C-6.2 155.2 -12.3 153 -18.3 150.9C-24.3 148.8 -30.1 146.9 -35.7 144.7C-41.2 142.4 -46.5 139.8 -52.5 138.4C-58.4 136.9 -65 136.6 -70.6 134.6C-76.3 132.5 -81.1 128.7 -86.9 125.9C-92.8 123.1 -99.7 121.4 -102.8 116C-105.9 110.6 -105.3 101.6 -108.5 96.2C-111.8 90.7 -119 88.9 -122.6 84.6C-126.3 80.3 -126.4 73.5 -131 68.8C-135.7 64 -144.9 61.3 -147.3 55.9C-149.6 50.4 -145.1 42.3 -144.7 35.7C-144.3 29.1 -148.1 24 -150.9 18.3C-153.7 12.6 -155.6 6.3 -157.5 0L0 0Z" fill="#b69b00"></path></g><g transform="translate(0, 450)"><path d="M0 -157.5C6 -154.4 11.9 -151.4 18.3 -150.9C24.7 -150.4 31.6 -152.5 36.9 -149.5C42.1 -146.6 45.7 -138.5 51.8 -136.5C57.8 -134.5 66.3 -138.4 71.1 -135.5C75.9 -132.5 77.1 -122.7 81.8 -118.5C86.5 -114.3 94.8 -115.7 100.8 -113.8C106.8 -111.8 110.6 -106.5 115.3 -102.1C119.9 -97.7 125.4 -94.3 129.6 -89.5C133.9 -84.7 136.9 -78.6 136.4 -71.6C135.8 -64.6 131.8 -56.6 134.6 -51.1C137.5 -45.5 147.2 -42.3 150.5 -37.1C153.8 -31.9 150.8 -24.8 150.9 -18.3C151 -11.8 154.2 -5.9 157.5 0L0 0Z" fill="#b69b00"></path></g></svg>